<?xml version="1.0" encoding="UTF-8"?>
<svg id="Layer_1" xmlns="http://www.w3.org/2000/svg" xmlns:xlink="http://www.w3.org/1999/xlink" version="1.1" viewBox="0 0 1024 1024">
  <!-- Generator: Adobe Illustrator 30.1.0, SVG Export Plug-In . SVG Version: 2.1.1 Build 136)  -->
  <defs>
    <style>
      .st0 {
        fill: none;
      }

      .st1 {
        fill: url(#radial-gradient);
      }

      .st2 {
        fill: url(#linear-gradient);
      }

      .st3 {
        fill: #e3ca85;
      }

      .st4 {
        clip-path: url(#clippath-1);
      }

      .st5 {
        fill: url(#radial-gradient1);
      }

      .st6 {
        clip-path: url(#clippath);
      }
    </style>
    <linearGradient id="linear-gradient" x1="0" y1="511.9" x2="1023.8" y2="511.9" gradientUnits="userSpaceOnUse">
      <stop offset="0" stop-color="#0b0d12"/>
      <stop offset="1" stop-color="#12161e"/>
    </linearGradient>
    <clipPath id="clippath">
      <rect class="st0" x="0" width="1023.8" height="1023.8" rx="157.8" ry="157.8"/>
    </clipPath>
    <radialGradient id="radial-gradient" cx="4.2" cy="3.8" fx="4.2" fy="3.8" r="1019.8" gradientUnits="userSpaceOnUse">
      <stop offset="0" stop-color="#2c2a23"/>
      <stop offset="1" stop-color="#2c2a23" stop-opacity="0"/>
    </radialGradient>
    <clipPath id="clippath-1">
      <rect class="st0" x="0" width="1023.8" height="1023.8" rx="157.8" ry="157.8"/>
    </clipPath>
    <radialGradient id="radial-gradient1" cx="0" cy="1024" fx="0" fy="1024" r="1019.8" gradientUnits="userSpaceOnUse">
      <stop offset="0" stop-color="#0c0e13"/>
      <stop offset="1" stop-color="#0c0e13" stop-opacity="0"/>
    </radialGradient>
  </defs>
  <rect class="st2" x="0" width="1023.8" height="1023.8" rx="157.8" ry="157.8"/>
  <g class="st6">
    <circle class="st1" cx="4.2" cy="3.8" r="1019.8"/>
  </g>
  <g class="st4">
    <circle class="st5" cx="0" cy="1024" r="1019.8"/>
  </g>
  <g>
    <path class="st3" d="M235.7,550.6c0-25.6,5.3-48.1,15.8-67.3,10.5-19.3,24.9-34.2,43.2-44.9,18.2-10.7,38.8-16,61.8-16s35.8,4.1,50,12.1c14.1,8.1,26.4,20.4,36.8,36.9l-25.7,17.5c-7.2-10.4-14.1-17.7-20.5-22-6.4-4.3-13.4-6.5-21-6.5s-13.9,2.7-19.5,8c-5.6,5.3-9.9,13.9-13,25.6-3.1,11.7-4.6,27.2-4.6,46.6s1.6,31.8,4.8,42.6c3.2,10.8,7.6,18.6,13.2,23.6,5.6,5,11.9,7.4,19,7.4s16.8-2.9,23.9-8.8c7.2-5.9,14-15.4,20.4-28.7l16.7,16c-13.4,21.9-28.5,39.1-45.4,51.8-16.9,12.7-36.2,19-57.9,19s-35.5-4.8-50.2-14.4c-14.8-9.6-26.5-22.8-35-39.7-8.6-16.9-12.9-36.4-12.9-58.6ZM406.2,615l-3.5-.2v-240.1c0-5-.7-8.6-2-10.7-1.3-2.1-3.3-3.6-6-4.4l-5.2-1.7c-3.3-1.1-5.7-2.7-7.2-4.7-1.5-2-2.2-4.6-2.2-7.8s1-6.8,3.1-9c2-2.2,5.9-4.4,11.6-6.6l52.4-20.3c8-3.1,14.5-5.4,19.5-6.8,5-1.4,9.8-2.1,14.5-2.1,7.1,0,12.5,2,16.2,6,3.7,4,5.5,9.1,5.5,15.2v285.4c0,6.3.5,10.7,1.4,13.3s2.6,4.4,5,5.5l5.2,2.4c3.6,1.6,6.2,3.5,7.8,5.9,1.6,2.4,2.4,5.1,2.4,8.3s-1.4,7.9-4.2,10.4c-2.8,2.5-7.4,3.8-13.7,3.8h-60.1c-10.5,0-19.9-3.9-27.9-11.6-8.1-7.7-12.1-16.8-12.1-27.4v-2.8Z"/>
    <path class="st3" d="M788.3,513.4c0,11-3,19.5-9,25.6-6,6.1-14.5,9.1-25.7,9.1h-139.8v-24.5h63c8.6,0,13-4.1,13-12.3,0-19.8-2.3-34-6.8-42.4-4.6-8.5-10.6-12.7-18.2-12.7s-10.5,2-14.9,6.1c-4.4,4.1-7.9,10.3-10.5,18.7-2.6,8.4-3.9,19.1-3.9,32,0,28.6,6.4,49.6,19.3,62.8,12.9,13.3,30.5,19.9,52.8,19.9s19.8-1.2,28.3-3.5c8.5-2.4,16.8-7.2,25-14.4,4.6-4.1,8-6.8,10.4-8.3s4.6-2.1,6.8-2.1c3.1,0,5.5,1.6,7,4.7,1.5,3.1,2.2,7,2.2,11.6,0,14-4.8,27.1-14.3,39.3-9.5,12.2-22.7,22-39.6,29.4-16.9,7.4-36.6,11.1-59.1,11.1s-45.7-4.8-64.9-14.3c-19.2-9.5-34.4-22.8-45.5-39.9-11.2-17.1-16.7-37-16.7-59.8s5.1-48,15.3-67c10.2-19,25.1-33.8,44.7-44.3,19.6-10.5,43.2-15.8,70.9-15.8s44.7,3.9,61.1,11.8c16.3,7.9,28.6,18.6,36.8,32.3,8.2,13.7,12.3,29.3,12.3,46.9Z"/>
  </g>
</svg>